#!OML:ASF F:\VICON\USERDATA\INSTALL\rory3\rory3.ASF
:FULLY-SPECIFIED
:DEGREES
200
root 1.03009 16.2228 -17.415 1.02451 0.914183 -0.970213
lowerback 15.3712 -0.218092 -0.529679
upperback 2.02285 -0.184781 2.69988
thorax -6.45786 -0.045404 3.2104
lowerneck -20.6421 -4.02446 -9.3545
upperneck 12.4525 -3.82344 6.05394
head 7.49438 -1.70524 3.04673
rclavicle 9.64106e-015 6.36111e-015
rhumerus -28.9737 -17.9968 -74.6675
rradius 24.899
rwrist 12.586
rhand -13.4753 13.3806
rfingers 7.12502
rthumb 12.635 -16.2172
lclavicle 9.64106e-015 6.36111e-015
lhumerus -21.7955 1.9677 76.8892
lradius 36.0341
lwrist -2.66732
lhand -16.9994 16.6217
lfingers 7.12502
lthumb 9.23593 46.3994
rfemur -26.1286 -4.01932 22.4156
rtibia 57.2604
rfoot -25.1202 -9.41317
rtoes -5.37725
lfemur -27.0899 6.42623 -18.6596
ltibia 57.1644
lfoot -27.7776 -1.82286
ltoes -4.9936
201
root 1.03836 16.2782 -17.4146 0.948908 1.02685 -0.965598
lowerback 15.3331 -0.258289 -0.470979
upperback 2.0353 -0.227525 2.7158
thorax -6.42119 -0.0679839 3.20185
lowerneck -20.8427 -4.06943 -9.43758
upperneck 12.6677 -3.88659 6.26795
head 7.61062 -1.71719 3.1245
rclavicle 2.88238e-015 3.97569e-015
rhumerus -29.4019 -18.1311 -74.6323
rradius 24.8515
rwrist 14.5186
rhand -12.9219 13.1822
rfingers 7.12502
rthumb 13.1685 -16.382
lclavicle 2.88238e-015 3.97569e-015
lhumerus -21.7955 1.9677 76.8892
lradius 36.0341
lwrist -2.66732
lhand -16.9994 16.6217
lfingers 7.12502
lthumb 9.23593 46.3994
rfemur -25.5976 -4.11413 22.3966
rtibia 56.2762
rfoot -24.4887 -9.70527
rtoes -7.95095
lfemur -26.6534 6.28293 -18.6407
ltibia 56.3942
lfoot -27.3033 -2.25207
ltoes -3.81585
202
root 1.04733 16.3345 -17.4113 0.85061 1.01051 -1.12894
lowerback 15.2498 -0.260566 -0.23064
upperback 2.05705 -0.189906 2.74939
thorax -6.35516 -0.0559287 3.09121
lowerneck -20.943 -4.08733 -9.48092
upperneck 12.7287 -3.92919 6.48064
head 7.65683 -1.7176 3.19789
rclavicle -2.48481e-015 -1.90833e-014
rhumerus -29.8831 -18.1948 -74.6616
rradius 24.7889
rwrist 16.1352
rhand -12.7754 13.5089
rfingers 7.12502
rthumb 13.3097 -16.0461
lclavicle -2.48481e-015 -1.90833e-014
lhumerus -21.7955 1.9677 76.8892
lradius 36.0341
lwrist -2.66732
lhand -16.9994 16.6217
lfingers 7.12502
lthumb 9.23593 46.3994
rfemur -24.9899 -4.00667 22.5767
rtibia 55.2355
rfoot -23.7755 -10.0658
rtoes -10.3572
lfemur -26.0803 6.23228 -18.4483
ltibia 55.5067
lfoot -26.8851 -2.40529
ltoes -3.08401
203
root 1.05657 16.3969 -17.4042 0.784849 0.971145 -1.12649
lowerback 15.0183 -0.254013 -0.186138
upperback 2.07013 -0.176219 2.76821
thorax -6.21459 -0.0516207 3.07897
lowerneck -20.9778 -4.12554 -9.39683
upperneck 12.7912 -3.99337 6.41841
head 7.68558 -1.74981 3.15498
rclavicle 1.82882e-014 -3.18055e-015
rhumerus -30.3293 -17.9443 -74.7704
rradius 24.7895
rwrist 17.2838
rhand -13.0084 13.6483
rfingers 7.12502
rthumb 13.0851 -15.9212
lclavicle 1.82882e-014 -3.18055e-015
lhumerus -21.7955 1.9677 76.8892
lradius 36.0341
lwrist -2.66732
lhand -16.9994 16.6217
lfingers 7.12502
lthumb 9.23593 46.3994
rfemur -24.2804 -3.7007 22.5238
rtibia 54.1429
rfoot -23.312 -10.0266
rtoes -10.0769
lfemur -25.3864 6.1439 -18.4835
ltibia 54.4195
lfoot -26.5351 -2.2501
ltoes -3.54557
204
root 1.06808 16.4731 -17.3937 0.691926 1.01646 -0.997176
lowerback 14.7745 -0.270287 -0.233697
upperback 2.10358 -0.210729 2.74902
thorax -6.04269 -0.0695789 3.08771
lowerneck -20.8444 -4.15453 -9.27486
upperneck 12.7234 -4.06733 6.35521
head 7.64298 -1.78676 3.10447
rclavicle -3.47873e-015 -7.95139e-015
rhumerus -30.8504 -17.6645 -74.8372
rradius 24.9654
rwrist 18.1278
rhand -12.9341 13.4945
rfingers 7.12502
rthumb 13.1567 -16.0704
lclavicle -3.47873e-015 -7.95139e-015
lhumerus -26.2504 16.0806 82.7436
lradius 23.2267
lwrist -20.4496
lhand -16.9994 16.6217
lfingers 7.12502
lthumb 9.23593 46.3994
rfemur -23.4088 -3.46105 22.2856
rtibia 52.9845
rfoot -23.0285 -9.74448
rtoes -8.64276
lfemur -24.5617 5.95546 -18.7078
ltibia 53.1373
lfoot -26.0226 -2.10477
ltoes -4.05658
205
root 1.08295 16.5524 -17.3843 0.720288 1.09266 -0.869062
lowerback 14.5204 -0.302847 -0.226758
upperback 2.03529 -0.258313 2.69132
thorax -5.97293 -0.0937768 3.02823
lowerneck -20.7914 -4.14737 -9.13691
upperneck 12.8704 -4.11127 6.37026
head 7.68417 -1.80102 3.08291
rclavicle 1.02374e-014 -7.95139e-016
rhumerus -31.4368 -17.462 -74.9138
rradius 24.9558
rwrist 18.4351
rhand -13.151 13.6438
rfingers 7.12502
rthumb 12.9476 -15.9345
lclavicle 1.02374e-014 -7.95139e-016
lhumerus -26.84 15.6528 83.0196
lradius 22.7583
lwrist -21.202
lhand -16.9994 16.6217
lfingers 7.12502
lthumb 9.23593 46.3994
rfemur -22.6678 -3.27483 22.0481
rtibia 51.7463
rfoot -22.7756 -9.44714
rtoes -6.79857
lfemur -23.8533 5.72215 -18.9722
ltibia 51.758
lfoot -25.2608 -1.87946
ltoes -4.23095
206
root 1.09961 16.6307 -17.3703 0.786438 1.05819 -0.674681
lowerback 14.2284 -0.319052 -0.301301
upperback 1.88265 -0.295653 2.63343
thorax -5.97187 -0.109915 3.01349
lowerneck -20.5888 -4.09635 -9.17046
upperneck 13.0155 -4.07907 6.49081
head 7.69977 -1.78004 3.13581
rclavicle -1.49089e-015 -1.03368e-014
rhumerus -32.1729 -16.9332 -75.0524
rradius 25.0366
rwrist 18.2898
rhand -14.2462 13.9975
rfingers 7.12502
rthumb 11.8917 -15.6448
lclavicle -1.49089e-015 -1.03368e-014
lhumerus -27.6037 15.5086 83.1749
lradius 22.3218
lwrist -22.0519
lhand -16.9994 16.6217
lfingers 7.12502
lthumb 9.23593 46.3994
rfemur -21.9734 -3.00731 21.7441
rtibia 50.4584
rfoot -22.5959 -9.1236
rtoes -4.7438
lfemur -23.0941 5.52335 -19.3063
ltibia 50.3805
lfoot -24.6216 -1.54126
ltoes -4.7444
